<?xml version="1.0" standalone="no"?>
<!DOCTYPE svg PUBLIC "-//W3C//DTD SVG 20010904//EN"
 "http://www.w3.org/TR/2001/REC-SVG-20010904/DTD/svg10.dtd">
<svg version="1.0" xmlns="http://www.w3.org/2000/svg"
 width="300.000000pt" height="160.000000pt" viewBox="0 0 300.000000 160.000000"
 preserveAspectRatio="xMidYMid meet">
<metadata>
Created by potrace 1.10, written by Peter Selinger 2001-2011
</metadata>
<g transform="translate(0.000000,160.000000) scale(0.050000,-0.050000)"
fill="#156501" stroke="none">
<path d="M2704 2647 c6 -130 56 -218 56 -99 0 62 40 68 75 12 14 -22 45 -40
68 -40 42 0 42 1 7 40 -29 31 -32 46 -14 64 71 71 10 156 -111 156 l-87 0 6
-133z m156 43 c0 -19 -19 -30 -50 -30 -31 0 -50 11 -50 30 0 19 19 30 50 30
31 0 50 -11 50 -30z"/>
<path d="M3033 2687 c-20 -145 -16 -187 17 -187 19 0 30 19 30 50 0 60 52 68
70 10 13 -40 85 -92 103 -73 6 5 -11 46 -36 91 l-47 82 58 47 c49 38 53 48 26
59 -20 7 -57 -8 -93 -39 l-61 -51 0 52 c0 93 -53 60 -67 -41z"/>
<path d="M2411 2735 c-55 -183 -65 -275 -31 -275 19 0 40 18 46 40 11 43 101
57 124 20 16 -26 70 -26 70 0 0 86 -189 280 -209 215z"/>
<path d="M3360 2622 c-14 -67 -24 -128 -22 -136 3 -18 186 -69 199 -56 22 22
-21 68 -69 74 -30 3 -59 18 -64 34 -7 21 6 24 63 14 57 -11 73 -7 73 16 0 16
-20 32 -43 36 -81 12 -69 59 14 52 90 -7 116 34 32 50 -32 7 -81 18 -108 24
-46 12 -50 6 -75 -108z"/>
<path d="M2145 2687 c-14 -6 -25 -25 -25 -44 -1 -75 -35 -95 -84 -48 -31 28
-56 37 -74 26 -43 -26 34 -261 85 -261 26 0 34 10 25 32 -40 105 -40 139 2
103 51 -45 66 -44 66 4 0 70 38 64 51 -8 12 -65 53 -94 76 -55 11 17 -71 265
-87 262 -5 0 -21 -6 -35 -11z"/>
<path d="M3680 2631 c0 -16 16 -38 35 -48 32 -19 32 -23 0 -92 -44 -92 -45
-136 -2 -127 19 3 46 44 63 93 25 75 34 85 74 75 103 -26 68 43 -43 86 -131
50 -127 50 -127 13z"/>
<path d="M1403 2426 c-350 -124 -667 -826 -373 -826 67 0 79 31 31 79 -133
133 101 579 346 660 178 59 175 27 -56 -609 -191 -528 -204 -595 -132 -654 84
-67 151 -42 145 54 -9 125 117 478 173 486 24 4 43 -4 43 -18 0 -58 224 -474
293 -544 171 -176 392 -198 553 -55 81 73 64 92 -37 41 -207 -106 -336 -14
-528 375 -145 293 -143 267 -26 323 285 138 511 369 474 485 -18 57 -58 44
-94 -32 -52 -107 -350 -322 -582 -419 -94 -39 -95 -52 26 288 127 359 47 473
-256 366z"/>
<path d="M4050 2445 c-11 -8 -21 -42 -22 -75 -1 -33 -72 -254 -157 -490 -213
-588 -218 -608 -204 -664 28 -115 198 -117 330 -4 91 78 103 82 103 31 0 -132
218 -156 351 -39 38 33 69 52 69 41 0 -70 -60 -148 -192 -250 -330 -256 -407
-554 -145 -555 141 0 243 130 391 500 78 196 89 212 156 235 84 29 210 -10
210 -64 0 -43 53 -39 65 5 30 116 -84 186 -224 137 -114 -40 -114 -61 0 224
130 325 127 416 -14 399 -47 -5 -58 -19 -80 -106 -64 -254 -278 -570 -385
-570 -80 0 -70 70 57 378 92 224 79 302 -53 302 -56 0 -66 -7 -66 -47 0 -192
-229 -603 -328 -589 -71 10 -60 63 118 536 219 582 217 576 179 634 -30 46
-116 62 -159 31z m379 -1490 c-56 -185 -236 -432 -298 -408 -74 28 -7 162 175
348 111 114 144 130 123 60z"/>
<path d="M2291 1861 c-7 -12 -9 -28 -3 -38 5 -9 -22 -114 -60 -233 -84 -258
-91 -356 -30 -417 68 -68 198 -59 296 20 l79 63 21 -57 c38 -99 155 -103 292
-10 69 47 74 47 74 11 0 -117 163 -97 199 25 104 347 401 656 401 416 0 -88
121 -33 162 74 67 177 -127 215 -298 58 -88 -81 -90 -82 -77 -28 22 90 -16
138 -103 131 -71 -6 -74 -9 -87 -96 -41 -292 -276 -629 -372 -534 -26 26 -19
57 54 266 106 301 103 356 -14 364 -82 6 -85 4 -85 -54 0 -134 -177 -509 -268
-569 -154 -101 -173 -11 -67 302 66 192 80 253 63 280 -25 40 -157 59 -177 26z"/>
</g>
</svg>
